    <svg
    t="1587045672517"
    className="icon"
    viewBox="0 0 1024 1024"
    version="1.1"
    xmlns="http://www.w3.org/2000/svg"
    p-id="3309"
    width="24"
    height="24"
  >
    <path
      d="M1024 293.2c0-74.88-27.04-110.96-49.76-128a86.08 86.08 0 0 0-74.64-15.36c-48 13.68-78.16 72-90.72 101.68-2.16-0.8-4.24-1.52-6.48-2.16-26.4-7.52-55.52-18.88-86.4-30.88-64-24.96-136.88-53.2-204.24-53.2-74.4 0-160.64 33.92-229.92 61.12-22.48 8.88-43.76 17.28-61.52 23.2-1.68 0.56-3.44 1.36-5.12 2.08-12.56-29.52-42.88-88-90.8-101.84a86 86 0 0 0-74.64 15.36C27.04 182.24 0 218.32 0 293.2 0 408.48 142.08 632 148.16 641.76c20.24 59.76 42 111.04 53.6 122.88 65.12 66.08 215.44 112 309.68 112s245.12-46.08 309.68-112c11.6-11.84 34.32-64.4 55.28-124.56 13.68-20.8 147.6-234.96 147.6-346.88z m-115.6-112.64a53.76 53.76 0 0 1 46.56 10.08c24 18 37.04 54.4 37.04 102.56 0 56-39.52 144.56-77.04 216a308.48 308.48 0 0 0 8-55.44c1.36-62.56-35.76-147.52-86.24-186.4 11.28-28.08 37.6-77.04 71.68-86.8zM32 293.2c0-48 13.12-84.56 37.04-102.56a53.68 53.68 0 0 1 46.56-10.08c34 9.68 60.24 58.88 72 87.04-47.52 36.08-85.2 109.92-85.2 176a367.28 367.28 0 0 0 10.32 72C73.84 443.04 32 350.8 32 293.2z m766.56 449.44C747.04 795.36 608 845.2 512 845.2c-97.2 0-233.92-48.96-286.88-102.64-16-16.88-90.88-224-90.88-298.96 0-66.4 48-147.52 96.48-163.76 18.48-6.16 40-14.64 63.12-24C360 229.84 443.44 197.2 512 197.2c61.36 0 128 25.92 192.64 51.04 32 12.24 61.36 24 89.28 32a65.92 65.92 0 0 1 14.88 6.72 18.08 18.08 0 0 0 2.08 1.28c42.24 26.88 81.76 104.4 80 165.04-1.44 72.88-76.96 273.28-92.32 289.36z"
      p-id="3310"
      fill="#2c2c2c"
    ></path>
    <path
      d="M685.12 578.4c-1.2 0-120 21.76-173.12 21.76s-171.92-21.52-173.12-21.76a16 16 0 0 0-5.76 31.52C338.16 610.8 456 632 512 632s173.84-21.36 178.88-22.24a16 16 0 0 0-5.76-31.52zM685.12 474.4c-1.2 0-120 21.76-173.12 21.76s-171.92-21.52-173.12-21.76a16 16 0 1 0-5.76 31.52C338.16 506.8 456 528 512 528s173.84-21.36 178.88-22.24a16 16 0 0 0-5.76-31.52zM685.12 370.4c-1.2 0-120 21.76-173.12 21.76s-171.92-21.52-173.12-21.76a16 16 0 1 0-5.76 31.52C338.16 402.8 456 424 512 424s173.84-21.36 178.88-22.24a16 16 0 0 0-5.76-31.52z"
      p-id="3311"
      fill="#2c2c2c"
    ></path>
  </svg>