  <svg
                      t="1587039814343"
                      className="icon"
                      viewBox="0 0 1024 1024"
                      version="1.1"
                      xmlns="http://www.w3.org/2000/svg"
                      p-id="1673"
                      width="24"
                      height="24"
                    >
                      <path
                        d="M306.72 466.72a64 64 0 1 0 90.56 0 64 64 0 0 0-90.56 0z m67.92 67.92a32 32 0 1 1 0-45.28 32 32 0 0 1 0 45.28zM466.72 306.72a64 64 0 1 0 90.56 0 64 64 0 0 0-90.56 0z m67.92 67.92a32 32 0 1 1 0-45.28 32 32 0 0 1 0 45.28zM626.72 466.72a64 64 0 1 0 90.56 0 64 64 0 0 0-90.56 0z m67.92 67.92a32 32 0 1 1 0-45.28 32 32 0 0 1 0 45.28zM466.72 626.72a64 64 0 1 0 90.56 0 64 64 0 0 0-90.56 0z m67.92 67.92a32 32 0 1 1 0-45.28 32 32 0 0 1 0 45.28z"
                        p-id="1674"
                        fill="#cf1322"
                      ></path>
                      <path
                        d="M1008 432a16 16 0 0 0-16 16v48h-74.08a150.96 150.96 0 0 0-24-47.12 130.16 130.16 0 0 1-18.56-34.24 133.84 133.84 0 0 1-1.2-40.56c1.44-22.64 2.96-46-8.72-66.16s-32.96-30.8-53.44-40.88c-7.52-3.76-14.72-7.36-21.12-11.28l72-72 33.92 33.92a16 16 0 0 0 11.36 4.72 16 16 0 0 0 11.28-27.36l-45.2-45.2-45.2-45.2a16 16 0 0 0-22.64 22.64l33.6 34-72 72c-3.92-6.4-7.52-13.6-11.2-21.04-10.16-20.56-20.56-41.76-40.96-53.52s-43.52-10.16-66.16-8.72a134 134 0 0 1-40.56-1.2 130.16 130.16 0 0 1-34.24-18.56 150.96 150.96 0 0 0-47.12-24V32h48a16 16 0 0 0 0-32H448a16 16 0 0 0 0 32h48v74.08a150.96 150.96 0 0 0-47.12 24 130.16 130.16 0 0 1-34.24 18.56 133.84 133.84 0 0 1-40.56 1.2c-22.64-1.44-46-2.96-66.16 8.72s-30.8 33.44-40.88 53.52c-3.76 7.52-7.36 14.72-11.28 21.12l-72-72 33.92-33.92a16 16 0 0 0-22.64-22.64l-45.2 45.2-45.12 45.36a16 16 0 1 0 22.64 22.64L161.28 184l72 72c-6.4 3.92-13.6 7.52-21.04 11.2-20.56 10.16-41.76 20.56-53.52 40.96s-10.16 43.52-8.72 66.16a133.92 133.92 0 0 1-1.2 40.56 130.16 130.16 0 0 1-18.56 34.24 150.96 150.96 0 0 0-24 47.12H32V448a16 16 0 0 0-32 0v128a16 16 0 0 0 32 0v-48h74.08a150.96 150.96 0 0 0 24 47.12 130.16 130.16 0 0 1 18.56 34.24 133.84 133.84 0 0 1 1.2 40.56c-1.44 22.64-2.96 46 8.72 66.16s32.96 30.8 53.44 40.96c7.52 3.68 14.72 7.28 21.12 11.2l-72 72-33.92-33.92a16 16 0 0 0-22.64 22.64l45.2 45.2 45.2 45.2a16 16 0 1 0 22.64-22.64l-33.6-34 72-72c3.92 6.4 7.52 13.6 11.2 21.04 10.16 20.56 20.56 41.76 40.96 53.52s43.52 10.16 66.16 8.72a133.84 133.84 0 0 1 40.56 1.2 130.16 130.16 0 0 1 34.24 18.56 150.96 150.96 0 0 0 47.12 24V992H448a16 16 0 0 0 0 32h128a16 16 0 0 0 0-32h-48v-74.08a150.96 150.96 0 0 0 47.12-24 130.16 130.16 0 0 1 34.24-18.56 134 134 0 0 1 40.56-1.2c22.64 1.44 46 2.96 66.16-8.72s30.8-32.96 40.96-53.44c3.68-7.52 7.28-14.72 11.2-21.12l72 72-33.92 33.92a16 16 0 1 0 22.64 22.64l45.2-45.2 45.2-45.2a16 16 0 0 0-22.64-22.64l-34 33.6-72-72c6.4-3.92 13.6-7.52 21.04-11.2 20.56-10.16 41.76-20.56 53.52-40.96s10.16-43.52 8.72-66.16a133.92 133.92 0 0 1 1.2-40.56 130.16 130.16 0 0 1 18.56-34.24 150.96 150.96 0 0 0 24-47.12H992v48a16 16 0 0 0 32 0V448a16 16 0 0 0-16-16z m-140.72 125.36a149.68 149.68 0 0 0-22.88 43.76 154.64 154.64 0 0 0-2.24 50.8c1.2 18.72 2.32 36.4-4.48 48s-22.96 19.92-40 28.32a151.52 151.52 0 0 0-42.48 26.96 152.64 152.64 0 0 0-27.2 42.56c-8.4 16.96-16 32.96-28.32 40s-29.36 5.68-48 4.48a154.56 154.56 0 0 0-50.8 2.24 149.68 149.68 0 0 0-43.76 22.88c-16 10.64-30.96 20.72-45.36 20.72s-29.44-10.08-45.36-20.72a149.68 149.68 0 0 0-43.76-22.88 105.36 105.36 0 0 0-27.92-3.2c-8 0-15.36 0.48-22.88 0.96-18.72 1.2-36.4 2.32-48-4.48s-19.92-22.96-28.32-40a151.52 151.52 0 0 0-26.96-42.48A152.64 152.64 0 0 0 226.24 728c-16.96-8.4-32.96-16-40-28.32s-5.68-29.36-4.48-48a154.64 154.64 0 0 0-2.24-50.8 149.68 149.68 0 0 0-22.88-43.76C146.08 541.44 136 526.4 136 512s10.08-29.44 20.72-45.36a149.68 149.68 0 0 0 22.88-43.76 154.64 154.64 0 0 0 2.24-50.8c-1.2-18.72-2.32-36.4 4.48-48s22.96-19.92 40-28.32a151.52 151.52 0 0 0 42.48-26.96 152.64 152.64 0 0 0 27.2-42.56c8-16.96 16-32.96 28.32-40s29.36-5.68 48-4.48a154.56 154.56 0 0 0 50.8-2.24 149.68 149.68 0 0 0 43.76-22.88C482.56 146.08 497.6 136 512 136s29.44 10.08 45.36 20.72a149.68 149.68 0 0 0 43.76 22.88 154.64 154.64 0 0 0 50.8 2.24c18.72-1.2 36.4-2.32 48 4.48s19.92 22.96 28.32 40a151.52 151.52 0 0 0 26.96 42.48 152.64 152.64 0 0 0 42.56 27.2c16.96 8 32.96 16 40 28.32s5.68 29.36 4.48 48a154.64 154.64 0 0 0 2.24 50.8 149.68 149.68 0 0 0 22.88 43.76c10.64 16 20.72 30.96 20.72 45.36s-10.16 29.2-20.8 45.12z"
                        p-id="1675"
                        fill="#cf1322"
                      ></path>
                    </svg>