 <svg
                      t="1587040716200"
                      className="icon"
                      viewBox="0 0 1024 1024"
                      version="1.1"
                      xmlns="http://www.w3.org/2000/svg"
                      p-id="4624"
                      width="24"
                      height="24"
                    >
                      <path
                        d="M233.003886 252.576914c5.7344-8.133486 8.6016-11.000686 21.065143-11.000685 0-121.943771 69.339429-228.615314 213.752685-228.615315V12.4928c143.945143 0 213.284571 106.642286 213.284572 228.586057 12.931657 0 15.301486 2.896457 21.065143 11.000686 5.7344 8.133486 2.8672 81.802971-33.967543 105.237943-9.069714 4.768914-19.602286 3.335314-21.533257 2.8672-2.8672 5.266286-6.670629 20.0704-13.370515 39.672685a366.884571 366.884571 0 0 0-177.912685 135.343543c-132.944457-9.069714-157.813029-156.379429-167.380115-175.016228a39.555657 39.555657 0 0 1-21.533257-2.8672c-36.337371-22.966857-39.204571-96.607086-33.470171-104.740572z m156.8768 487.306972L288.475429 572.562286c-138.210743 41.5744-221.886171 88.941714-238.650515 112.347428-22.469486 23.464229-26.770286 73.669486-26.770285 73.669486v207.082057c0 8.133486 7.168 41.603657 45.436342 41.603657h431.835429a365.831314 365.831314 0 0 1-110.445714-262.085485v-5.266286z m627.9168 23.932343c0 70.304914-42.071771 115.273143-128.146286 136.777142a11.761371 11.761371 0 0 0-8.630857 11.000686v68.373943c0 3.364571-11.966171 12.434286-33.938286 12.434286-8.133486 0-16.266971-1.4336-23.434971-4.3008a11.234743 11.234743 0 0 0-11.498057 1.930971 84.260571 84.260571 0 0 1-55.939658 15.7696 86.952229 86.952229 0 0 1-55.968914-16.735086 10.8544 10.8544 0 0 0-7.636114-2.8672 6.641371 6.641371 0 0 0-4.3008 0 67.584 67.584 0 0 1-23.434972 4.3008c-22.498743 0-33.967543-9.069714-33.967542-12.434285v-68.4032c0-5.266286-3.335314-10.0352-8.6016-11.000686-84.1728-20.0704-125.805714-63.605029-127.707429-131.978971v-4.798172c0-11.936914 0.965486-24.3712 2.8672-37.302857 0-0.936229 0-2.369829 0.497371-3.335314 1.901714-12.434286 4.768914-25.336686 8.133486-38.268343 0.468114-0.936229 0.468114-2.369829 0.936229-3.335314 3.364571-11.000686 6.729143-22.001371 11.498057-33.470172 0.468114-1.462857 1.4336-2.8672 1.901714-4.3008 3.335314-7.665371 6.699886-15.330743 10.532572-22.498743 1.4336-2.8672 2.8672-5.7344 4.3008-8.133485 4.3008-7.168 8.6016-14.804114 13.370514-21.504 1.462857-1.930971 2.399086-3.832686 3.832686-5.266286a246.345143 246.345143 0 0 1 20.567771-24.868572l5.7344-5.7344c5.7344-6.231771 12.434286-11.4688 18.666057-17.232457 2.399086-1.901714 5.266286-4.3008 7.636114-6.202514 7.665371-5.7344 15.798857-11.000686 24.868572-16.266971 1.462857-0.965486 2.399086-1.901714 3.832686-2.399086 10.0352-5.266286 21.065143-10.0352 32.036571-13.867886 2.8672-0.936229 6.231771-1.901714 9.567086-2.8672 9.069714-2.8672 18.168686-5.266286 27.735771-6.699886 3.832686-0.468114 7.168-1.4336 11.000686-1.901714a286.368914 286.368914 0 0 1 41.135543-3.335314h3.335314c203.746743 2.369829 258.750171 176.9472 259.218286 280.722286z m-298.422857-77.472915c0-37.302857-29.169371-67.437714-65.536-67.437714-36.337371 0-65.506743 30.134857-65.506743 67.437714 0 37.302857 29.169371 67.437714 65.536 67.437715 36.337371 0 65.536-30.134857 65.536-67.437715z m82.7392 180.779886c-0.965486-26.799543-20.567771-48.800914-45.933715-52.6336-25.8048 3.832686-44.938971 26.331429-45.904457 52.6336 0 26.770286 25.834057 26.770286 45.933714 26.770286 19.602286 0 45.904457 0 45.904458-26.770286z m117.642971-180.809143c0-37.2736-29.169371-67.408457-65.536-67.408457-36.337371 0-65.506743 30.134857-65.506743 67.437714 0 37.302857 29.169371 67.437714 65.536 67.437715 36.337371 0 65.536-30.134857 65.536-67.437715z"
                        p-id="4625"
                        fill="#cf1322"
                      ></path>
                    </svg>