<svg
    t="1587039986744"
    className="icon"
    viewBox="0 0 1024 1024"
    version="1.1"
    xmlns="http://www.w3.org/2000/svg"
    p-id="2923"
    width="24"
    height="24"
  >
    <path
      d="M864 919.984v-32h-68.528a47.872 47.872 0 0 0-2.176-3.472l41.856-8.864-6.624-31.312-67.808 14.352a182.368 182.368 0 0 0-21.376-8.992l13.232-8.4-17.152-27.008-38.224 24.272c-13.248-2.48-27.36-4.32-42.128-5.392l0.928-0.224-64-192-160-32v-144.96h112l112-112-32-32v-119.264L784 128 624 55.264v-7.28h-32v272l-80 80h-159.728a79.936 79.936 0 0 0 33.664-7.504A63.792 63.792 0 0 1 352 336h32c0 17.6 14.4 32 32 32 10.08-13.28 16-29.92 16-48 0-44.16-35.84-80-80-80s-80 35.84-80 80a80.016 80.016 0 0 0 79.856 79.984H240l-85.296 98.208a63.952 63.952 0 0 0-10.16 67.952L192 672.944l64-32-48-96 64-64v176l-16 319.04h80l32-287.04 176 32 42.288 112.752a370.56 370.56 0 0 0-35.472 4.88l-38.24-24.272-17.152 27.008 13.216 8.4c-7.728 2.752-14.912 5.744-21.36 8.992l-67.808-14.352-6.624 31.312 41.856 8.864a42.896 42.896 0 0 0-2.176 3.472H384v32h68.512c0.656 1.184 1.408 2.336 2.192 3.488l-41.856 8.848 6.624 31.312 67.824-14.336c6.448 3.248 13.632 6.24 21.344 8.976l-13.232 8.384 17.152 27.024 38.272-24.288a388.32 388.32 0 0 0 57.168 6.24V992h32v-16.336a390.256 390.256 0 0 0 57.152-6.24l38.272 24.288 17.152-27.024-13.216-8.384a185.76 185.76 0 0 0 21.344-8.992l67.824 14.352 6.624-31.312-41.856-8.848c0.784-1.152 1.536-2.32 2.192-3.488H864z"
      fill="#3f8600"
      p-id="2924"
    ></path>
  </svg>